<svg xmlns="http://www.w3.org/2000/svg" width="1366" height="768" viewBox="0 0 1366 768">
  <defs>
    <linearGradient id="paper" x1="0" x2="0" y1="0" y2="1">
      <stop offset="0%" stop-color="#f6efdf"/>
      <stop offset="100%" stop-color="#e6dcc7"/>
    </linearGradient>
    <filter id="paperNoise" x="-20%" y="-20%" width="140%" height="140%">
      <feTurbulence type="fractalNoise" baseFrequency="0.85" numOctaves="2" seed="8" result="noise"/>
      <feColorMatrix in="noise" type="saturate" values="0"/>
      <feComponentTransfer>
        <feFuncA type="table" tableValues="0 0.05"/>
      </feComponentTransfer>
    </filter>
    <style>
      .ink{stroke:#5f4b3b;stroke-linecap:round;stroke-linejoin:round;fill:none}
      .fine{stroke-width:1.5}
      .mid{stroke-width:2.5}
      .bold{stroke-width:4}
      .sepia{fill:#efe4d0;stroke:#5f4b3b;stroke-width:2.5}
      .accent{fill:#c07d52;fill-opacity:0.32;stroke:#7a4d33;stroke-width:2}
      .text{fill:#4a3b31;font-family:Menlo, Monaco, monospace}
      .title{font-size:28px;font-weight:700;letter-spacing:1px}
      .label{font-size:18px;font-weight:600}
      .small{font-size:14px}
    </style>
  </defs>

  <rect width="1366" height="768" fill="url(#paper)"/>
  <rect width="1366" height="768" filter="url(#paperNoise)" opacity="0.8"/>

  <g opacity="0.45">
    <path class="ink fine" d="M28,34 C60,6 110,12 138,32"/>
    <path class="ink fine" d="M1238,30 C1275,8 1322,10 1344,40"/>
    <path class="ink fine" d="M24,738 C56,710 106,714 132,738"/>
    <path class="ink fine" d="M1230,736 C1260,710 1316,710 1342,734"/>
  </g>

  <rect x="20" y="20" width="1326" height="728" rx="16" class="ink fine" opacity="0.65"/>
  <rect x="34" y="34" width="1298" height="700" rx="12" class="ink fine" opacity="0.35"/>

  <g opacity="0.22">
    <path class="ink fine" d="M78,160 C220,120 320,220 418,160 S620,90 704,172"/>
    <path class="ink fine" d="M950,120 C1030,190 1100,150 1240,182"/>
    <path class="ink fine" d="M120,610 C300,560 410,670 560,620"/>
    <path class="ink fine" d="M920,620 C1060,560 1150,640 1280,600"/>
    <circle cx="214" cy="144" r="4" fill="#5f4b3b"/>
    <circle cx="384" cy="176" r="3" fill="#5f4b3b"/>
    <circle cx="1030" cy="154" r="4" fill="#5f4b3b"/>
    <circle cx="1148" cy="612" r="3" fill="#5f4b3b"/>
  </g>

  <g transform="translate(485 136)">
    <rect x="0" y="0" width="396" height="520" rx="34" class="sepia"/>
    <rect x="24" y="34" width="348" height="408" rx="18" fill="#f8f0e2" stroke="#6c5645" stroke-width="2"/>
    <circle cx="198" cy="478" r="20" class="ink mid"/>
    <path class="ink mid" d="M62,390 C118,338 168,362 218,312 C252,278 286,244 332,208"/>
    <path class="ink bold" d="M62,390 C118,338 168,362 218,312 C252,278 286,244 332,208"/>
    <path d="M332,208 l-28,6 l10,22 z" fill="#5f4b3b"/>
    <polyline class="ink mid" points="78,370 126,338 170,352 216,304 260,266 304,232"/>
    <line class="ink fine" x1="72" y1="396" x2="332" y2="396"/>
    <line class="ink fine" x1="72" y1="332" x2="72" y2="396"/>
    <rect x="78" y="296" width="34" height="100" fill="#d8c7b2" stroke="#6c5645" stroke-width="2"/>
    <rect x="132" y="262" width="34" height="134" fill="#d8c7b2" stroke="#6c5645" stroke-width="2"/>
    <rect x="186" y="318" width="34" height="78" fill="#d8c7b2" stroke="#6c5645" stroke-width="2"/>
    <rect x="240" y="236" width="34" height="160" fill="#d8c7b2" stroke="#6c5645" stroke-width="2"/>
    <rect x="294" y="188" width="34" height="208" fill="#d8c7b2" stroke="#6c5645" stroke-width="2"/>
    <text x="198" y="82" text-anchor="middle" class="text title">X INFO BIZ</text>
    <text x="198" y="108" text-anchor="middle" class="text small">LLM / AGENTS / FUNNEL</text>
  </g>

  <g transform="translate(188 214)">
    <circle cx="114" cy="150" r="88" class="sepia"/>
    <circle cx="114" cy="150" r="36" class="ink mid"/>
    <path class="ink mid" d="M114,62 v-42"/>
    <path class="ink mid" d="M114,280 v-42"/>
    <path class="ink mid" d="M26,150 h-42"/>
    <path class="ink mid" d="M244,150 h-42"/>
    <path class="ink mid" d="M52,88 l-28,-28"/>
    <path class="ink mid" d="M176,212 l28,28"/>
    <path class="ink mid" d="M176,88 l28,-28"/>
    <path class="ink mid" d="M52,212 l-28,28"/>
    <circle cx="114" cy="20" r="10" class="accent"/>
    <circle cx="114" cy="280" r="10" class="accent"/>
    <circle cx="244" cy="150" r="10" class="accent"/>
    <circle cx="-16" cy="150" r="10" class="accent"/>
    <text x="114" y="155" text-anchor="middle" class="text label">AGENT</text>
    <text x="114" y="182" text-anchor="middle" class="text small">POST / NOTE / LINE</text>
  </g>

  <g transform="translate(972 188)">
    <path class="sepia" d="M0,136 C0,64 56,12 126,12 C206,12 258,72 258,150 C258,226 206,286 126,286 C92,286 62,274 36,252 L0,262 L16,224 C6,198 0,170 0,136 Z"/>
    <path class="ink mid" d="M76,102 q50,-34 102,0"/>
    <path class="ink mid" d="M70,148 q58,-28 116,0"/>
    <path class="ink mid" d="M84,194 q44,-18 88,0"/>
    <circle cx="198" cy="74" r="24" class="accent"/>
    <text x="198" y="81" text-anchor="middle" class="text label">¥</text>
    <circle cx="216" cy="226" r="20" class="accent"/>
    <text x="216" y="233" text-anchor="middle" class="text small">$</text>
    <text x="128" y="326" text-anchor="middle" class="text label">FREE TO PAID</text>
  </g>

  <g transform="translate(164 520)">
    <path class="ink bold" d="M0,68 h136"/>
    <path class="ink bold" d="M136,68 l54,-34 v68 z"/>
    <path class="ink mid" d="M190,46 l44,-18"/>
    <path class="ink mid" d="M192,70 h52"/>
    <path class="ink mid" d="M190,92 l44,18"/>
    <text x="98" y="138" text-anchor="middle" class="text label">HYPE</text>
  </g>

  <g transform="translate(1036 532)">
    <rect x="0" y="0" width="186" height="126" rx="12" fill="#f3e8d5" stroke="#6c5645" stroke-width="2"/>
    <text x="18" y="28" class="text small">Signal Board</text>
    <line x1="18" y1="44" x2="168" y2="44" class="ink fine"/>
    <text x="18" y="68" class="text small">reach</text>
    <rect x="78" y="56" width="72" height="12" fill="#cfb08b" stroke="#6c5645" stroke-width="1.5"/>
    <text x="18" y="92" class="text small">proof</text>
    <rect x="78" y="80" width="54" height="12" fill="#cfb08b" stroke="#6c5645" stroke-width="1.5"/>
    <text x="18" y="116" class="text small">upsell</text>
    <rect x="78" y="104" width="88" height="12" fill="#cfb08b" stroke="#6c5645" stroke-width="1.5"/>
  </g>

  <g opacity="0.5">
    <path class="ink fine" d="M420,132 C470,102 494,98 532,108"/>
    <path class="ink fine" d="M892,150 C930,120 964,118 1012,132"/>
    <path class="ink fine" d="M368,612 C424,644 456,646 504,622"/>
    <path class="ink fine" d="M880,620 C926,652 968,646 1020,620"/>
  </g>
</svg>
